#tb 0: 1/25
0,          0,          0,        1,   768000, 0x4dfbb6d0
0,          1,          1,        1,   768000, 0x22652a22
0,          2,          2,        1,   768000, 0x6c613e8c
0,          3,          3,        1,   768000, 0x82471f25
0,          4,          4,        1,   768000, 0xd8dc5ac6
0,          5,          5,        1,   768000, 0x1afdc026
0,          6,          6,        1,   768000, 0x518f3ba1
0,          7,          7,        1,   768000, 0xa82a8e4b
